<?xml version="1.0" encoding="UTF-8"?>
<svg width="20px" height="20px" viewBox="0 0 20 20" version="1.1" xmlns="http://www.w3.org/2000/svg" xmlns:xlink="http://www.w3.org/1999/xlink">
    <!-- Generator: Sketch 52.6 (67491) - http://www.bohemiancoding.com/sketch -->
    <title>tick/tick_uncheck</title>
    <desc>Created with Sketch.</desc>
    <g id="tick/tick_uncheck" stroke="none" stroke-width="1" fill="none" fill-rule="evenodd">
        <g id="tick-no" fill="#505763">
            <path d="M9.94068966,0.0175862069 C12.3344828,0.0175862069 14.7293103,0.0203448276 17.1227586,0.0162068966 C17.5296552,0.0148275862 17.9268966,0.0524137931 18.2948276,0.237241379 C19.1768966,0.678965517 19.662069,1.39413793 19.7103448,2.38137931 C19.7334483,2.86758621 19.7158621,3.35517241 19.7158621,3.84310345 C19.7158621,8.18689655 19.7158621,12.5310345 19.7144828,16.8737931 C19.7144828,17.1027586 19.7144828,17.3355172 19.6727586,17.557931 C19.4451724,18.737931 18.4765517,19.5582759 17.2710345,19.5596552 C12.3827586,19.5662069 7.49310345,19.5675862 2.60517241,19.5582759 C1.2337931,19.5555172 0.176551724,18.4982759 0.173793103,17.1268966 C0.164482759,12.2386207 0.165517241,7.34896552 0.172413793,2.46103448 C0.175172414,1.05862069 1.21482759,0.0255172414 2.62931034,0.0189655172 C5.06586207,0.0106896552 7.50275862,0.0189655172 9.94068966,0.0175862069 L9.94068966,0.0175862069 Z M9.97172414,1.23517241 L2.91758621,1.23517241 C2.77344828,1.23517241 2.62931034,1.22965517 2.48793103,1.24206897 C1.91,1.29448276 1.44931034,1.7537931 1.39275862,2.33310345 C1.37931034,2.47586207 1.38482759,2.62 1.38482759,2.76275862 L1.38482759,16.7862069 C1.38482759,16.9006897 1.38206897,17.0151724 1.38724138,17.1296552 C1.41551724,17.7706897 1.83310345,18.2382759 2.46482759,18.3296552 C2.60655172,18.35 2.75068966,18.3458621 2.89482759,18.3458621 C7.59827586,18.3472414 12.3006897,18.3458621 17.0031034,18.3458621 C17.0744828,18.3458621 17.1472414,18.3472414 17.2186207,18.3444828 C17.9862069,18.3148276 18.4724138,17.8286207 18.4982759,17.0662069 C18.502069,16.9651724 18.4993103,16.8655172 18.4993103,16.7644828 L18.4993103,2.78413793 C18.4993103,2.65482759 18.5048276,2.52551724 18.4941379,2.39758621 C18.4389655,1.72689655 17.9537931,1.26206897 17.2844828,1.23517241 C17.1551724,1.22965517 17.0258621,1.23241379 16.897931,1.23241379 C14.587931,1.23517241 12.2803448,1.23517241 9.97172414,1.23517241 L9.97172414,1.23517241 Z" id="Fill-1"></path>
        </g>
    </g>
</svg>