<?xml version="1.0" encoding="UTF-8"?>
<svg width="21px" height="27px" viewBox="0 0 21 27" version="1.1" xmlns="http://www.w3.org/2000/svg" xmlns:xlink="http://www.w3.org/1999/xlink">
    <!-- Generator: Sketch 52.6 (67491) - http://www.bohemiancoding.com/sketch -->
    <title>Fill 106 Copy</title>
    <desc>Created with Sketch.</desc>
    <g id="Page-1" stroke="none" stroke-width="1" fill="none" fill-rule="evenodd">
        <g id="Landing-Page_960" transform="translate(-413.000000, -1540.000000)" fill="#384047">
            <path d="M418.280476,1539.15663 C418.717962,1539.12431 419.118383,1539.22645 419.483572,1539.46264 C419.889956,1539.71086 420.14642,1540.1048 420.430572,1540.46869 C420.923463,1541.0988 421.387911,1541.7524 421.886227,1542.37803 C423.040531,1543.82808 424.209351,1545.26643 425.368787,1546.71245 C425.526232,1546.90918 425.670559,1547.11788 425.806153,1547.33084 C425.980744,1547.60564 425.820564,1547.92727 425.483647,1548.01658 C424.939791,1548.16046 424.503784,1548.05314 424.140466,1547.59013 C423.152259,1546.33025 422.143966,1545.08679 421.132887,1543.84568 C420.68124,1543.29136 420.207309,1542.75587 419.734187,1542.22058 C419.695023,1542.17593 419.583714,1542.18724 419.506705,1542.19167 C419.484439,1542.19259 419.455688,1542.25911 419.446185,1542.29938 C419.417099,1542.42397 419.383385,1542.54941 419.373266,1542.67575 C419.172684,1545.1442 418.974823,1547.61282 418.777108,1550.08121 C418.756583,1550.33627 418.755763,1550.59388 418.715312,1550.84625 C418.678615,1551.0764 418.511188,1551.21716 418.293913,1551.2804 C418.173271,1551.31575 418.043845,1551.33899 417.919265,1551.33688 C417.33422,1551.3275 417.045881,1551.05954 417.054327,1550.48693 C417.06389,1549.84779 417.094101,1549.20732 417.148501,1548.56975 C417.303579,1546.74016 417.474021,1544.91158 417.642331,1543.0829 C417.72076,1542.23034 417.783178,1541.38115 417.589704,1540.53713 C417.542995,1540.33385 417.545624,1540.11456 417.549968,1539.9028 C417.558687,1539.48986 417.86584,1539.18714 418.280476,1539.15663 Z M424.011632,1562.2245 C423.294009,1564.38109 422.4347,1566.48535 421.438991,1568.53595 C421.102449,1569.22954 420.671263,1569.88202 420.256223,1570.5377 C420.148217,1570.70909 419.953084,1570.84151 419.773539,1570.95577 C419.616264,1571.05589 419.43143,1571.02305 419.276659,1570.91199 C419.111033,1570.79345 419.08765,1570.61805 419.150282,1570.45547 C419.226276,1570.25738 419.34291,1570.07317 419.451194,1569.88736 C419.73262,1569.40334 420.052182,1568.93667 420.298534,1568.43691 C421.420898,1566.15885 422.41243,1563.82846 423.110567,1561.3961 C424.072037,1558.04588 423.848037,1554.35964 422.644948,1551.08952 C422.393585,1550.40714 422.068177,1549.74959 421.77506,1549.08163 C421.427105,1548.28873 420.958062,1547.56711 420.382126,1546.90849 C420.210654,1546.71254 420.031388,1546.52112 419.875504,1546.31395 C419.602429,1545.95034 419.658937,1545.52639 420.012181,1545.15129 C420.249904,1544.89874 420.600086,1544.8683 420.833911,1545.09763 C421.395093,1545.64893 421.92816,1546.23119 422.303117,1546.91303 C423.470576,1549.03651 424.406157,1551.24062 424.720152,1553.64896 C424.830384,1554.49633 424.955926,1555.34155 424.926141,1556.1996 C424.910553,1558.13353 424.624033,1560.38241 424.011632,1562.2245 Z" id="Fill-106-Copy" transform="translate(421.465844, 1555.083219) scale(-1, 1) rotate(39.000000) translate(-421.465844, -1555.083219) "></path>
        </g>
    </g>
</svg>