<?xml version="1.0" encoding="UTF-8"?>
<svg width="20px" height="20px" viewBox="0 0 20 20" version="1.1" xmlns="http://www.w3.org/2000/svg" xmlns:xlink="http://www.w3.org/1999/xlink">
    <g id="Page-1" stroke="none" stroke-width="1" fill="none" fill-rule="evenodd">
        <g id="Landing-Page_1440" transform="translate(-170.000000, -4454.000000)" fill="#F7BC11" fill-rule="nonzero">
            <g id="_ionicons_svg_ios-help-circle-copy-2" transform="translate(170.000000, 4454.000000)">
                <path d="M10,0 C4.47596154,0 0,4.47596154 0,10 C0,15.5240385 4.47596154,20 10,20 C15.5240385,20 20,15.5240385 20,10 C20,4.47596154 15.5240385,0 10,0 Z M9.79326923,14.6153846 C9.22596154,14.6153846 8.76442308,14.1826923 8.76442308,13.625 C8.76442308,13.0721154 9.22596154,12.6346154 9.79326923,12.6346154 C10.3653846,12.6346154 10.8269231,13.0673077 10.8269231,13.625 C10.8269231,14.1826923 10.3701923,14.6153846 9.79326923,14.6153846 Z M11.7259615,9.95673077 C10.8894231,10.4423077 10.6057692,10.7980769 10.6057692,11.4134615 L10.6057692,11.7932692 L8.9375,11.7932692 L8.92307692,11.3798077 C8.84134615,10.3894231 9.1875,9.77403846 10.0576923,9.26442308 C10.8701923,8.77884615 11.2115385,8.47115385 11.2115385,7.875 C11.2115385,7.27884615 10.6346154,6.84134615 9.91826923,6.84134615 C9.19230769,6.84134615 8.66826923,7.3125 8.62980769,8.02403846 L6.92307692,8.02403846 C6.95673077,6.47596154 8.10096154,5.37980769 10.0336538,5.37980769 C11.8365385,5.37980769 13.0769231,6.37980769 13.0769231,7.81730769 C13.0769231,8.77403846 12.6153846,9.43269231 11.7259615,9.95673077 Z" id="Shape"></path>
            </g>
        </g>
    </g>
</svg>
