<?xml version="1.0" encoding="UTF-8"?>
<svg width="33px" height="31px" viewBox="0 0 33 31" version="1.1" xmlns="http://www.w3.org/2000/svg" xmlns:xlink="http://www.w3.org/1999/xlink">
    <g id="Page-1" stroke="none" stroke-width="1" fill="none" fill-rule="evenodd">
        <g id="Landing-Page_960" transform="translate(-353.000000, -661.000000)" fill="#F7BC11">
            <path d="M361.54444,659.42851 C361.887278,658.99057 362.461605,658.867932 362.940332,659.155712 C363.18574,659.303434 363.438473,659.458472 363.636264,659.656713 C364.45783,660.479288 365.475355,661.021749 366.508631,661.54888 C368.72499,662.679443 370.942815,663.807566 373.150384,664.953458 C373.919938,665.352377 374.674841,665.780214 375.412895,666.23 C376.07403,666.633101 376.166332,667.145947 375.742547,667.801638 C375.652442,667.941347 375.529738,668.068165 375.399709,668.176518 C375.166022,668.371971 374.88069,668.456285 374.59023,668.331208 C374.271567,668.194287 373.976345,668.009634 373.669402,667.848673 C370.699605,666.289925 367.729442,664.731178 364.757447,663.175566 C364.605441,663.095782 364.436952,663.042825 364.272859,662.985339 C364.219748,662.966874 364.122318,662.950847 364.104736,662.974887 C364.042469,663.05711 363.94687,663.17243 363.968846,663.248033 C364.229638,664.158406 364.490063,665.069824 364.788581,665.970093 C365.457041,667.985594 366.130264,669.999702 366.837184,672.003358 C367.096876,672.739879 366.895789,673.300805 366.327322,673.800412 C365.974961,674.109792 365.488175,674.05579 365.30357,673.664187 C365.160721,673.360381 365.029227,673.049956 364.921174,672.733607 C364.128544,670.405938 363.351665,668.073391 362.550611,665.74851 C362.205209,664.745114 361.802667,663.759138 361.448108,662.75853 C361.242992,662.181229 360.982933,661.612986 361.000881,660.983425 C361.001979,660.408214 361.182555,659.89049 361.54444,659.42851 Z M372.672592,688.373018 C371.694016,691.225278 370.52223,694.008333 369.164446,696.720416 C368.705525,697.637744 368.117544,698.500696 367.551579,699.367884 C367.404299,699.594568 367.138209,699.769701 366.893375,699.920823 C366.678908,700.053232 366.426862,700.009802 366.215811,699.862917 C365.989957,699.706145 365.958072,699.474165 366.043479,699.259133 C366.147106,698.99714 366.306153,698.753508 366.453813,698.507757 C366.837575,697.867605 367.273342,697.250404 367.609277,696.58942 C369.139773,693.576504 370.491863,690.494382 371.443868,687.27738 C372.754962,682.846455 372.523794,678.455076 370.883217,674.130078 C370.54045,673.22758 370.096712,672.357919 369.697007,671.474488 C369.222523,670.425811 368.582918,669.471409 367.797552,668.600337 C367.563726,668.341169 367.319272,668.088003 367.106703,667.814005 C366.734328,667.333097 366.811384,666.77239 367.29308,666.276299 C367.617248,665.942276 368.094769,665.902024 368.413622,666.205328 C369.17887,666.934458 369.90578,667.704548 370.417084,668.606339 C372.009073,671.414816 373.284866,674.329926 373.713041,677.51515 C373.863357,678.635858 374.034551,679.75374 373.993936,680.888571 C373.972679,683.446355 373.507684,685.936698 372.672592,688.373018 Z" id="Fill-106" transform="translate(368.500000, 679.500000) scale(-1, 1) rotate(49.000000) translate(-368.500000, -679.500000) "></path>
        </g>
    </g>
</svg>