<?xml version="1.0" encoding="UTF-8"?>
<svg width="12px" height="32px" viewBox="0 0 12 32" version="1.1" xmlns="http://www.w3.org/2000/svg" xmlns:xlink="http://www.w3.org/1999/xlink">
    <!-- Generator: Sketch 52.6 (67491) - http://www.bohemiancoding.com/sketch -->
    <title>Fill 106 Copy</title>
    <desc>Created with Sketch.</desc>
    <g id="Page-1" stroke="none" stroke-width="1" fill="none" fill-rule="evenodd">
        <g id="Landing-Page_960" transform="translate(-289.000000, -1539.000000)" fill="#384047">
            <path d="M290.989318,1539.81399 C291.240732,1539.48287 291.661905,1539.39014 292.012972,1539.60773 C292.192938,1539.71942 292.378275,1539.83665 292.523322,1539.98653 C293.125804,1540.60848 293.871989,1541.01864 294.629724,1541.4172 C296.255055,1542.27201 297.881459,1543.12498 299.500343,1543.99139 C300.064683,1544.29301 300.618278,1544.6165 301.159518,1544.95658 C301.64435,1545.26136 301.712039,1545.64913 301.401262,1546.14489 C301.335185,1546.25053 301.245203,1546.34641 301.149848,1546.42834 C300.978478,1546.57612 300.769234,1546.63987 300.55623,1546.5453 C300.322544,1546.44177 300.106048,1546.30216 299.880957,1546.18046 C297.703105,1545.00189 295.524986,1543.82333 293.345523,1542.64713 C293.234051,1542.58681 293.110493,1542.54677 292.990158,1542.5033 C292.95121,1542.48934 292.879761,1542.47722 292.866868,1542.4954 C292.821205,1542.55757 292.751099,1542.64476 292.767216,1542.70192 C292.958463,1543.39025 293.149441,1544.07937 293.368354,1544.76007 C293.858559,1546.28398 294.352255,1547.80684 294.870663,1549.3218 C295.061104,1549.87868 294.91364,1550.3028 294.496765,1550.68055 C294.238366,1550.91447 293.88139,1550.87364 293.746013,1550.57755 C293.641257,1550.34785 293.544828,1550.11313 293.465589,1549.87394 C292.884327,1548.114 292.314616,1546.35037 291.727176,1544.59253 C291.473881,1543.83386 291.178684,1543.08837 290.918674,1542.33181 C290.768255,1541.89532 290.577546,1541.46567 290.590707,1540.98966 C290.591513,1540.55474 290.723936,1540.16329 290.989318,1539.81399 Z M299.149962,1561.69886 C298.43234,1563.85545 297.57303,1565.95971 296.577322,1568.01031 C296.24078,1568.7039 295.809594,1569.35638 295.394553,1570.01205 C295.286548,1570.18345 295.091415,1570.31587 294.91187,1570.43013 C294.754594,1570.53024 294.56976,1570.49741 294.41499,1570.38635 C294.249363,1570.26781 294.225981,1570.09241 294.288613,1569.92983 C294.364606,1569.73174 294.481241,1569.54753 294.589524,1569.36171 C294.87095,1568.8777 295.190512,1568.41103 295.436864,1567.91126 C296.559228,1565.63321 297.550761,1563.30282 298.248898,1560.87045 C299.210367,1557.52024 299.040844,1554.19993 297.837754,1550.92981 C297.586392,1550.24743 297.260984,1549.58989 296.967867,1548.92193 C296.619912,1548.12902 296.150868,1547.4074 295.574933,1546.74879 C295.403461,1546.55283 295.224194,1546.36141 295.06831,1546.15424 C294.795235,1545.79063 294.851743,1545.36668 295.204987,1544.99159 C295.44271,1544.73903 295.792892,1544.7086 296.026718,1544.93793 C296.5879,1545.48922 297.120967,1546.07148 297.495923,1546.75333 C298.663382,1548.87681 299.598964,1551.08092 299.912958,1553.48926 C300.02319,1554.33662 300.148733,1555.18185 300.118948,1556.03989 C300.103359,1557.97383 299.762363,1559.85677 299.149962,1561.69886 Z" id="Fill-106-Copy" transform="translate(296.090062, 1554.989996) scale(-1, 1) rotate(6.000000) translate(-296.090062, -1554.989996) "></path>
        </g>
    </g>
</svg>