<?xml version="1.0" encoding="UTF-8"?>
<svg width="20px" height="20px" viewBox="0 0 20 20" version="1.1" xmlns="http://www.w3.org/2000/svg" xmlns:xlink="http://www.w3.org/1999/xlink">
    <g id="Page-1" stroke="none" stroke-width="1" fill="none" fill-rule="evenodd">
        <g id="Landing-Page_1440" transform="translate(-183.000000, -1307.000000)" fill="#F7BC11">
            <g id="icon_check" transform="translate(183.000000, 1307.000000)">
                <g id="_ionicons_svg_ios-checkmark-circle">
                    <path d="M10,0 C4.47596154,0 0,4.47596154 0,10 C0,15.5240385 4.47596154,20 10,20 C15.5240385,20 20,15.5240385 20,10 C20,4.47596154 15.5240385,0 10,0 Z M15.1201923,7.23557692 L8.69230769,13.6923077 L8.6875,13.6923077 C8.60576923,13.7740385 8.38461538,13.9567308 8.12980769,13.9567308 C7.94711538,13.9567308 7.74038462,13.8557692 7.56730769,13.6826923 L4.875,10.9903846 C4.79807692,10.9134615 4.79807692,10.7932692 4.875,10.7163462 L5.73076923,9.86057692 C5.76923077,9.82211538 5.81730769,9.80288462 5.86538462,9.80288462 C5.91346154,9.80288462 5.96153846,9.82211538 6,9.86057692 L8.13461538,11.9951923 L14,6.08653846 C14.0384615,6.04807692 14.0865385,6.02884615 14.1346154,6.02884615 C14.1875,6.02884615 14.2355769,6.04807692 14.2692308,6.08653846 L15.1105769,6.95673077 C15.1971154,7.03846154 15.1971154,7.15865385 15.1201923,7.23557692 Z" id="Shape" fill-rule="nonzero"></path>
                </g>
            </g>
        </g>
    </g>
</svg>
