<?xml version="1.0" encoding="UTF-8"?>
<svg width="20px" height="20px" viewBox="0 0 20 20" version="1.1" xmlns="http://www.w3.org/2000/svg" xmlns:xlink="http://www.w3.org/1999/xlink">
    <!-- Generator: Sketch 52.6 (67491) - http://www.bohemiancoding.com/sketch -->
    <title>tick/tick_unavailable</title>
    <desc>Created with Sketch.</desc>
    <g id="tick/tick_unavailable" stroke="none" stroke-width="1" fill="none" fill-rule="evenodd">
        <g id="tick-no-copy" fill="#EEEEEE" stroke="#D8D8D8">
            <path d="M17.1227586,0.0162068966 C17.5296552,0.0148275862 17.9268966,0.0524137931 18.2948276,0.237241379 C19.1768966,0.678965517 19.662069,1.39413793 19.7103448,2.38137931 C19.7334483,2.86758621 19.7158621,3.35517241 19.7158621,3.84310345 C19.7158621,8.18689655 19.7158621,12.5310345 19.7144828,16.8737931 C19.7144828,17.1027586 19.7144828,17.3355172 19.6727586,17.557931 C19.4451724,18.737931 18.4765517,19.5582759 17.2710345,19.5596552 C12.3827586,19.5662069 7.49310345,19.5675862 2.60517241,19.5582759 C1.2337931,19.5555172 0.176551724,18.4982759 0.173793103,17.1268966 C0.164482759,12.2386207 0.165517241,7.34896552 0.172413793,2.46103448 C0.175172414,1.05862069 1.21482759,0.0255172414 2.62931034,0.0189655172 C5.06586207,0.0106896552 7.50275862,0.0189655172 9.94068966,0.0175862069 C12.3344828,0.0175862069 14.7293103,0.0203448276 17.1227586,0.0162068966 Z" id="Fill-1"></path>
        </g>
    </g>
</svg>