<?xml version="1.0" encoding="UTF-8"?>
<svg width="20px" height="20px" viewBox="0 0 20 20" version="1.1" xmlns="http://www.w3.org/2000/svg" xmlns:xlink="http://www.w3.org/1999/xlink">
    <!-- Generator: Sketch 52.6 (67491) - http://www.bohemiancoding.com/sketch -->
    <title>tick/tick_yes</title>
    <desc>Created with Sketch.</desc>
    <g id="tick/tick_yes" stroke="none" stroke-width="1" fill="none" fill-rule="evenodd">
        <g id="tick_check">
            <path d="M9.99595295,0.00240639772 C12.4441896,0.00240639772 14.8934842,0.00522856229 17.3413681,0.00099531543 C17.757519,-0.000415766857 18.1637951,0.0380362255 18.5400942,0.227121252 C19.4422246,0.679020355 19.9384316,1.41066652 19.9878054,2.42064867 C20.0114343,2.91805517 19.9934481,3.41687276 19.9934481,3.91604312 C19.9934481,8.35989402 19.9934481,12.8040977 19.9920374,17.2468903 C19.9920374,17.4811299 19.9920374,17.7192501 19.9493643,17.9467871 C19.716602,19.153968 18.7259514,19.9932092 17.4930163,19.9946202 C12.4935634,20.0013229 7.49269978,20.002734 2.49359952,19.9932092 C1.09103009,19.990387 0.00974321877,18.9087924 0.00692185707,17.5058239 C-0.00260023866,12.5049482 -0.00154222802,7.50266153 0.00551117622,2.50213867 C0.00833253792,1.06742075 1.07163323,0.0105201209 2.51828644,0.00381748001 C5.01025416,-0.00464901372 7.50257455,0.00381748001 9.99595295,0.00240639772 L9.99595295,0.00240639772 Z" id="Fill-1" fill="#096CA3"></path>
            <path d="M9.38602579,11.8697333 C10.5150121,9.7709488 11.6423337,7.6710906 12.7713201,5.57266403 C12.8335791,5.45670118 12.8908441,5.33501177 12.9704159,5.23443905 C13.1691787,4.98103874 13.4658248,4.93093133 13.7181903,5.09449622 C13.9652289,5.25519783 14.0654427,5.56693747 13.9559067,5.86901355 C13.9209484,5.96529135 13.8716739,6.05476886 13.8233981,6.14567801 C12.490322,8.63315279 11.1559141,11.1202697 9.82150621,13.6059549 C9.58245809,14.0519108 9.21556251,14.1302931 8.85932088,13.7849099 C7.97637434,12.9266416 7.10241707,12.0569202 6.23345385,11.1832618 C5.94746174,10.8951442 5.92915026,10.5468978 6.15155157,10.2716649 C6.37794812,9.9917793 6.73818498,9.97925245 7.03449811,10.26737 C7.6108105,10.8253518 8.17646894,11.3940708 8.74745435,11.9592108 C8.85932088,12.0680154 8.97118741,12.177178 9.1260027,12.3310793 C9.2312105,12.1449661 9.31178104,12.0093182 9.38602579,11.8697333 Z" id="Fill-2" fill="#FFFFFF"></path>
        </g>
    </g>
</svg>