<svg width="21" height="27" viewBox="0 0 21 27" xmlns="http://www.w3.org/2000/svg"><title>Fill 106 Copy</title><path d="M.918.701a1.9 1.9 0 0 0-.742.995c-.16.449-.111.916-.103 1.378.014.8.064 1.6.07 2.4.016 1.853.013 3.707.022 5.56.001.252.02.505.05.756.036.323.363.473.681.33.513-.23.785-.588.776-1.177a259.884 259.884 0 0 1-.02-4.803c.003-.715.034-1.429.065-2.143.002-.059.096-.12.158-.165.018-.014.083.02.115.045.101.079.206.155.294.247C3.994 5.916 5.7 7.71 7.408 9.504c.176.185.339.385.529.556.173.155.392.16.6.072.117-.049.232-.112.327-.192.45-.376.505-.765.138-1.205-.41-.49-.836-.97-1.28-1.43C6.45 5.98 5.167 4.665 3.885 3.35c-.597-.613-1.18-1.234-1.561-2.012A2.625 2.625 0 0 0 1.956.82C1.689.506 1.26.464.918.701zm10.064 21.534a52.1 52.1 0 0 0 5.97 3.286c.699.327 1.445.563 2.18.811.192.066.426.046.638.022.185-.022.308-.164.359-.347.054-.197-.039-.348-.19-.435-.183-.106-.39-.175-.59-.252-.524-.199-1.066-.36-1.572-.594-2.306-1.064-4.543-2.25-6.617-3.702-2.855-1.998-5-5.004-6.124-8.302-.234-.689-.395-1.405-.587-2.108a8.45 8.45 0 0 1-.285-2.566c.01-.26.028-.522.02-.78-.018-.455-.328-.749-.839-.818-.343-.047-.635.15-.672.475-.09.782-.137 1.57 0 2.336.43 2.385 1.09 4.686 2.361 6.756.448.727.882 1.463 1.445 2.111 1.23 1.494 2.867 3.061 4.503 4.107z" fill="#384047" fill-rule="evenodd"/></svg>