<svg width="12" height="32" viewBox="0 0 12 32" xmlns="http://www.w3.org/2000/svg"><title>Fill 106 Copy</title><path d="M10.577.364c-.285-.303-.714-.351-1.04-.098-.167.13-.34.266-.468.43-.534.681-1.233 1.167-1.945 1.643-1.527 1.02-3.056 2.038-4.575 3.07-.53.358-1.047.738-1.55 1.132-.45.354-.477.747-.116 1.208.077.098.177.184.28.255.186.13.4.17.603.054.221-.127.422-.288.633-.433 2.043-1.4 4.086-2.8 6.13-4.197.105-.072.224-.125.339-.18.037-.018.107-.038.122-.021.051.057.13.136.12.195-.118.704-.236 1.41-.382 2.11-.329 1.566-.66 3.133-1.018 4.693-.13.574.06.98.514 1.313.282.205.632.127.736-.181.08-.24.152-.483.205-.73.394-1.81.777-3.624 1.177-5.434.173-.78.388-1.553.568-2.332.104-.45.249-.897.186-1.37a1.9 1.9 0 0 0-.52-1.127zM4.748 22.982a52.1 52.1 0 0 0 3.218 6.008c.408.655.905 1.258 1.386 1.867.125.16.333.27.524.365.167.084.347.032.49-.095.152-.135.157-.312.077-.467-.096-.19-.231-.36-.358-.534-.33-.452-.697-.883-.995-1.354-1.354-2.148-2.584-4.362-3.532-6.708-1.307-3.231-1.485-6.551-.63-9.93.178-.704.433-1.392.655-2.087A8.45 8.45 0 0 1 6.74 7.74c.15-.213.308-.422.442-.644.233-.39.133-.806-.258-1.142-.263-.226-.614-.22-.823.032-.5.607-.97 1.242-1.271 1.96-.94 2.233-1.64 4.523-1.7 6.951-.02.854-.057 1.708.062 2.558.218 1.922.754 3.759 1.555 5.527z" fill="#384047" fill-rule="evenodd"/></svg>