<svg width="33" height="31" viewBox="0 0 33 31" xmlns="http://www.w3.org/2000/svg"><path d="M4.915.082C4.36.054 3.89.407 3.793.957c-.05.282-.098.575-.078.854.082 1.16-.176 2.283-.456 3.41-.601 2.414-1.205 4.827-1.788 7.245a37.64 37.64 0 0 0-.521 2.545c-.13.764.197 1.17.97 1.28.164.024.34.014.507-.013.301-.048.552-.208.648-.509.106-.33.16-.674.24-1.012a8887.05 8887.05 0 0 1 2.32-9.791c.04-.167.11-.33.174-.49.021-.053.073-.137.103-.135.103.007.253.01.295.077.516.794 1.033 1.589 1.517 2.405a336.413 336.413 0 0 1 3.21 5.504c.385.679.94.895 1.69.794.465-.063.743-.466.569-.862a9.138 9.138 0 0 0-.452-.9c-1.236-2.124-2.487-4.241-3.716-6.37-.53-.92-1.01-1.87-1.533-2.795-.302-.533-.56-1.102-1.047-1.502a2.464 2.464 0 0 0-1.53-.61zM19.46 27.47a67.738 67.738 0 0 0 8.601 2.83c.994.255 2.03.377 3.057.519.267.037.574-.049.849-.134.24-.075.373-.294.4-.55.03-.273-.124-.45-.342-.526-.266-.093-.554-.133-.836-.183-.735-.13-1.487-.206-2.206-.387-3.278-.821-6.491-1.823-9.544-3.215-4.204-1.917-7.366-4.973-9.554-9.048-.457-.851-.822-1.757-1.226-2.638a11.14 11.14 0 0 1-.923-3.319c-.042-.346-.073-.697-.14-1.037-.12-.597-.593-.906-1.283-.868-.465.025-.809.36-.789.799.048 1.056.153 2.11.498 3.087 1.075 3.044 2.438 5.92 4.561 8.332.747.849 1.479 1.711 2.362 2.425 1.944 1.662 4.129 2.945 6.515 3.913z" fill="#F7BC11" fill-rule="evenodd"/></svg>