<svg xmlns="http://www.w3.org/2000/svg" viewBox="0 0 148 29"><path class="st0" d="M60.8 18.5c-.1.3-.3.6-.6.8-.2.2-.5.4-.9.6-.3.1-.7.2-1.1.2h-2.9v-5.2h2.9c.4 0 .8.1 1.1.2.3.1.6.3.9.5.2.2.4.5.6.8.1.3.2.7.2 1 0 .5 0 .8-.2 1.1zm-5.4-9h2.8c.3 0 .6.1.9.2.3.1.5.3.7.5.2.2.4.5.5.7.1.3.2.6.2.9 0 .3-.1.6-.2.9-.1.3-.3.5-.5.7s-.4.4-.7.5c-.3.1-.6.2-.9.2h-2.8V9.5zm6 6.1c-.2-.3-.4-.5-.6-.7-.3-.2-.5-.4-.8-.5.4-.3.8-.6 1.1-1.1.3-.5.4-1 .4-1.5 0-.4-.1-.8-.2-1.2-.2-.4-.4-.7-.7-1-.3-.3-.6-.5-1-.7-.4-.2-.8-.3-1.2-.3h-3.3c-.1 0-.2 0-.3.1-.1.1-.1.2-.1.3v11.6c0 .1 0 .2.1.3.1.1.2.1.3.1h3.4c.5 0 1-.1 1.4-.3.4-.2.8-.4 1.2-.7.3-.3.6-.7.8-1.1.2-.4.3-.9.3-1.4 0-.4-.1-.7-.2-1-.3-.3-.4-.6-.6-.9zm19.7-7c-.1 0-.2 0-.3.1-.1.1-.1.2-.1.3v10.2L73.3 8.8c-.1-.1-.1-.1-.2-.1s-.2 0-.3.1c-.1.1-.1.2-.1.3v11.6c0 .1 0 .2.1.3.1.1.2.1.3.1.1 0 .2 0 .3-.1.1-.1.1-.2.1-.3V10.4l7.2 10.4s0 .1.1.1c.1.1.2.1.3.1h.1c.1 0 .2-.1.3-.2.1-.1.1-.2.1-.3V9c0-.1 0-.2-.1-.3-.2-.1-.3-.1-.4-.1zm-10.9.9c.1 0 .2 0 .3-.1.1-.1.1-.2.1-.3 0-.1 0-.2-.1-.3-.1-.1-.2-.1-.3-.1h-5.7c-.1 0-.2 0-.3.1-.1 0-.2.1-.2.2v11.5c0 .1 0 .2.1.3.1.1.2.1.3.2h5.8c.1 0 .2 0 .3-.1.1-.1.1-.2.1-.3s0-.2-.1-.3c-.1-.1-.2-.1-.3-.1h-5.3v-4.9h3.9c.1 0 .2 0 .3-.1.1-.1.1-.2.1-.3 0-.1 0-.2-.1-.3-.1-.1-.2-.1-.3-.1h-3.9v-5h5.3zm21.5-.9c-.1 0-.2 0-.3.1l-6.7 6.2V9c0-.1 0-.2-.1-.3-.1-.1-.2-.1-.3-.1-.1 0-.2 0-.3.1-.1.1-.1.2-.1.3v11.6c0 .1 0 .2.1.3.1.1.2.1.3.1.1 0 .2 0 .3-.1.1-.1.1-.2.1-.3v-4.5l2.1-1.9 4.4 6.6c.1.1.2.2.3.2.1 0 .2 0 .4-.1.1-.1.2-.2.2-.3 0-.1 0-.2-.1-.4l-4.5-6.7L92 9.4c.1-.1.2-.2.2-.3 0-.1 0-.2-.1-.3-.2-.2-.3-.2-.4-.2zM148 20.5L146.6 9c0-.1 0-.2-.1-.2-.1-.1-.1-.1-.2-.1h-.3c-.1 0-.2.1-.2.2l-4.3 10.5-4.3-10.5c-.1-.1-.1-.2-.3-.2h-.5c-.1.1-.2.2-.2.3l-1.5 11.5c0 .1 0 .2.1.3.1.1.2.2.3.2.1 0 .2 0 .3-.1.1-.1.2-.2.2-.3l1.3-9.8 4.1 10c0 .1.1.2.2.2h.3c.1 0 .2-.1.3-.2l4-9.9 1.2 9.8c0 .1.1.2.2.3.1.1.2.1.3.1.1 0 .2-.1.3-.2.2-.1.2-.3.2-.4zm-40.6-.6c-.2 0-.3.1-.4.2-.1.1-.2.3-.2.5s.1.3.2.4c.1.1.3.2.4.2.2 0 .3-.1.5-.2.1-.1.2-.3.2-.4 0-.2-.1-.3-.2-.5-.2-.1-.3-.2-.5-.2zm4-7.8c.2-.4.5-.8.8-1.1.3-.3.7-.6 1.1-.8.4-.2.8-.4 1.3-.5.5-.1.9-.2 1.4-.2.7 0 1.4.1 2 .4.7.3 1.3.7 1.8 1.2.1.1.2.1.3.1.1 0 .2 0 .3-.1.1-.1.1-.2.1-.3 0-.1-.1-.2-.1-.3-.6-.6-1.3-1.1-2.1-1.4-.8-.3-1.6-.5-2.4-.5-.6 0-1.2.1-1.7.2-.5.2-1.1.4-1.5.7s-.9.6-1.3 1-.7.8-1 1.3c-.3.5-.5 1-.6 1.5-.1.5-.2 1.1-.2 1.6 0 .9.2 1.7.5 2.5s.8 1.4 1.3 2c.6.6 1.2 1 2 1.4.8.3 1.6.5 2.5.5.8 0 1.6-.2 2.4-.5.8-.3 1.5-.8 2.1-1.4.1-.1.1-.2.1-.3s-.1-.2-.1-.3c-.1-.1-.2-.1-.3-.1-.1 0-.2.1-.3.1-.6.5-1.2.9-1.8 1.2-.6.2-1.3.4-2 .4-.8 0-1.5-.1-2.1-.4-.7-.3-1.2-.7-1.7-1.2s-.9-1.1-1.1-1.7c-.3-.7-.4-1.3-.4-2.1 0-.5.1-1 .2-1.4.1-.7.2-1.1.5-1.5zm21.4 4.9c-.3.7-.7 1.2-1.2 1.7s-1.1.9-1.7 1.2c-.7.3-1.4.4-2.1.4-.8 0-1.5-.1-2.1-.4-.7-.3-1.2-.7-1.7-1.2s-.9-1.1-1.1-1.7c-.3-.7-.4-1.4-.4-2.1 0-.5.1-1 .2-1.4.1-.5.3-.9.5-1.3s.5-.8.8-1.1c.3-.3.7-.6 1.1-.8.4-.2.8-.4 1.3-.5.5-.1.9-.2 1.4-.2.7 0 1.4.1 2.1.4.7.3 1.2.7 1.7 1.2s.9 1.1 1.2 1.7c.3.7.4 1.4.4 2.1 0 .6-.1 1.3-.4 2zm-.5-6.7c-.6-.6-1.2-1-2-1.4-.8-.3-1.6-.5-2.5-.5-.6 0-1.1.1-1.7.2l-1.5.6c-.5.3-.9.6-1.3 1s-.7.8-1 1.3-.5 1-.6 1.5c-.1.5-.2 1.1-.2 1.7 0 .6.1 1.2.2 1.7s.4 1.1.6 1.5c.3.5.6.9 1 1.3s.8.7 1.3 1c.5.3 1 .5 1.5.6.5.2 1.1.2 1.7.2.6 0 1.1-.1 1.7-.2l1.5-.6c.5-.3.9-.6 1.3-1s.7-.8 1-1.3c.3-.5.5-1 .6-1.5.2-.5.2-1.1.2-1.7 0-.9-.2-1.7-.5-2.5-.3-.6-.7-1.3-1.3-1.9zM103.8 17c-.3.7-.7 1.2-1.2 1.7s-1.1.9-1.7 1.2c-.7.3-1.4.4-2.1.4-.8 0-1.5-.1-2.1-.4-.7-.3-1.2-.7-1.7-1.2s-.9-1.1-1.1-1.7c-.3-.7-.4-1.4-.4-2.1 0-.5.1-1 .2-1.4.1-.5.3-.9.5-1.3s.5-.8.8-1.1c.3-.3.7-.6 1.1-.8.4-.2.8-.4 1.3-.5.5-.1.9-.2 1.4-.2.7 0 1.4.1 2.1.4.7.3 1.2.7 1.7 1.2s.9 1.1 1.2 1.7c.3.7.4 1.4.4 2.1.1.6-.1 1.3-.4 2zm-.5-6.7c-.6-.6-1.2-1-2-1.4-.8-.3-1.6-.5-2.5-.5-.6 0-1.1.1-1.7.2l-1.5.6c-.5.2-.9.6-1.3 1s-.7.8-1 1.3c-.3.5-.5 1-.6 1.5-.1.5-.2 1.1-.2 1.7 0 .6.1 1.2.2 1.7s.4 1.1.6 1.5c.3.5.6.9 1 1.3s.8.7 1.3 1c.5.3 1 .5 1.5.6.5.2 1.1.2 1.7.2.6 0 1.1-.1 1.7-.2l1.5-.6c.5-.3.9-.6 1.3-1s.7-.8 1-1.3c.3-.5.5-1 .6-1.5.2-.5.2-1.1.2-1.7 0-.9-.2-1.7-.5-2.5-.2-.6-.7-1.3-1.3-1.9zm-51.2-.8c.1 0 .2 0 .3-.1.1-.1.1-.2.1-.3 0-.1 0-.2-.1-.3-.1-.1-.2-.1-.3-.1h-5.7c-.1 0-.2 0-.3.1-.1 0-.1.1-.1.2v11.5c0 .1 0 .2.1.3.1.1.2.1.3.2h5.8c.1 0 .2 0 .3-.1.1-.1.1-.2.1-.3s0-.2-.1-.3c-.1-.1-.2-.1-.3-.1h-5.3v-4.9h3.9c.1 0 .2 0 .3-.1.1-.1.1-.2.1-.3 0-.1 0-.2-.1-.3-.1-.1-.2-.1-.3-.1h-3.9v-5h5.2zM44 8.6h-7.4c-.1 0-.2 0-.3.1-.1.1-.1.2-.1.3 0 .1 0 .2.1.3.1.1.2.1.3.1h3.2v11.1c0 .1 0 .2.1.3.1.1.2.1.3.1.1 0 .2 0 .3-.1.1-.1.1-.2.1-.3v-11H44c.1 0 .2 0 .3-.1.1-.1.1-.2.1-.3 0-.1 0-.2-.1-.3-.1-.2-.2-.2-.3-.2zm-24.3 4.2c1.3 0 2.4-1.1 2.4-2.4C22.1 9.1 21 8 19.7 8c-1.3 0-2.4 1.1-2.4 2.4.1 1.3 1.1 2.4 2.4 2.4zm-10.3 0c1.3 0 2.4-1.1 2.4-2.4 0-1.3-1.1-2.4-2.4-2.4S7 9.1 7 10.4c.1 1.3 1.1 2.4 2.4 2.4zM25 16.2c.1.1.2.2.2.3.1.2.1.5.1.7 0 .2-.1.4-.2.6 0 .1-.1.2-.2.3-.6 1.1-1.9 2.9-5.2 2.9-2.7 0-4.5-1.1-5.2-2.1-.7 1-2.5 2.1-5.2 2.1-3.2 0-4.6-1.7-5.1-2.8 0-.1-.1-.2-.2-.3-.1-.2-.2-.4-.2-.6 0-.2 0-.5.1-.7.1-.1.1-.2.2-.3.2-.2.3-.3.4-.3.2-.1.5-.2.8-.2.3 0 .6.1.7.3.2.2.3.4.4.7v.4c0 .1-.1.2-.1.3-.1.2-.3.3-.5.3s-.4 0-.5-.1c-.1 0-.1-.1-.2-.1 0-.1-.1-.1-.1-.1v-.4s0 .1.1.3c.1.1.3.3.6.2.1 0 .3-.1.3-.3v-.5c0-.2-.1-.3-.3-.4-.1-.1-.3-.2-.5-.1-.2 0-.4.1-.5.2l-.2.2c-.1.1-.1.1-.1.2-.1.2-.1.3 0 .5 0 .2.1.3.1.4.2.1.4.2.5.3.3.1.6.1 1.1.1 1.7 0 3.1-2.2 5.5-2.2.7 0 1.6.1 3 1.1 1.4-1 2.3-1.1 3-1.1 2.4 0 3.8 2.2 5.5 2.2.4 0 .7 0 1-.1h.1c.1-.1.3-.2.5-.5.1-.1.1-.3.1-.4v-.5c0-.1-.1-.2-.1-.2 0-.1-.1-.1-.2-.2s-.3-.2-.5-.2-.3 0-.5.1c-.1.1-.2.3-.3.4v.2c0 .1 0 .2.1.2l.3.3c.3.1.5 0 .6-.2.1-.1.1-.3.1-.3v.4c0 .1-.1.1-.1.1s-.1.1-.2.1c-.1.1-.3.1-.5.1s-.4-.2-.5-.3c-.1-.1-.1-.2-.1-.3v-.4c0-.2.2-.5.4-.7.2-.2.5-.3.7-.3.3 0 .5.1.8.2 0 .3.1.4.2.5zm-15.6-9c1.6 0 2.9 1.2 3.2 2.7.4-.7 1.1-1.2 2-1.2.9 0 1.6.5 2 1.2.3-1.5 1.6-2.7 3.2-2.7 1.8 0 3.2 1.5 3.2 3.3s-1.5 3.3-3.2 3.3c-1.6 0-3-1.2-3.2-2.8h-.3c0-.9-.7-1.6-1.6-1.6-.9 0-1.6.7-1.6 1.6h-.3c-.2 1.6-1.6 2.8-3.2 2.8-1.8 0-3.2-1.5-3.2-3.3s1.2-3.3 3-3.3zm5-7.2C6.5 0 0 6.5 0 14.5S6.5 29 14.4 29s14.4-6.5 14.4-14.5S22.4 0 14.4 0z"/></svg>