<svg width="148" height="29" viewBox="0 0 148 29" xmlns="http://www.w3.org/2000/svg"><title>Fill 1</title><path d="M60.837 18.505a2.56 2.56 0 0 1-.57.836 2.787 2.787 0 0 1-.87.571 2.78 2.78 0 0 1-1.1.215H55.38v-5.236h2.89a3 3 0 0 1 1.103.2c.341.133.634.316.88.547.247.231.44.506.58.825.14.32.209.665.209 1.036 0 .352-.068.687-.204 1.006zm-5.458-9.027h2.84c.318 0 .613.063.886.19.272.127.507.297.705.508.198.212.354.455.467.728a2.225 2.225 0 0 1 0 1.71 2.364 2.364 0 0 1-.472.728c-.2.212-.44.381-.72.508-.278.127-.58.19-.904.19h-2.802V9.478zm6.017 6.15a3.329 3.329 0 0 0-.647-.723 3.58 3.58 0 0 0-.836-.522c.447-.28.804-.65 1.07-1.11.265-.459.398-.972.398-1.538 0-.436-.08-.849-.243-1.236a3.17 3.17 0 0 0-.666-1.011 3.202 3.202 0 0 0-.997-.684 2.996 2.996 0 0 0-1.226-.254h-3.327a.458.458 0 0 0-.467.459v11.587a.458.458 0 0 0 .467.459h3.395c.512 0 .99-.088 1.435-.263a3.59 3.59 0 0 0 1.157-.728 3.377 3.377 0 0 0 1.056-2.506 3.501 3.501 0 0 0-.57-1.93zm19.66-7.078a.455.455 0 0 0-.338.136.458.458 0 0 0-.134.333v10.15L73.347 8.746l-.03-.02a.34.34 0 0 0-.204-.136c-.007-.006-.013-.01-.02-.01a.071.071 0 0 1-.029-.01.2.2 0 0 1-.043-.005.458.458 0 0 0-.51.454l-.001 11.578a.458.458 0 0 0 .467.459.445.445 0 0 0 .457-.459v-10.17l7.238 10.444a.219.219 0 0 0 .076.078.484.484 0 0 0 .26.107h.077a.098.098 0 0 0 .034-.005.111.111 0 0 1 .033-.004.473.473 0 0 0 .255-.162.438.438 0 0 0 .101-.288V9.02a.467.467 0 0 0-.13-.333.428.428 0 0 0-.322-.136zm-10.861.928c.13 0 .238-.044.326-.132a.445.445 0 0 0 .13-.327.457.457 0 0 0-.13-.337.442.442 0 0 0-.326-.132h-5.7a.503.503 0 0 0-.341.127.43.43 0 0 0-.146.342v11.548c0 .13.039.24.117.332a.45.45 0 0 0 .31.156h5.76a.397.397 0 0 0 .326-.131.478.478 0 0 0 .13-.337c0-.13-.043-.24-.13-.328a.442.442 0 0 0-.326-.132h-5.263v-4.865h3.92a.45.45 0 0 0 .326-.127.43.43 0 0 0 .131-.323c0-.13-.044-.24-.13-.332a.404.404 0 0 0-.327-.127h-3.92V9.478h5.263zm21.46-.919a.436.436 0 0 0-.332.127l-6.741 6.175V9.01c0-.13-.044-.24-.131-.327a.442.442 0 0 0-.326-.132.457.457 0 0 0-.467.459v11.587a.457.457 0 0 0 .467.459.445.445 0 0 0 .457-.459v-4.494l2.052-1.866 4.407 6.614a.427.427 0 0 0 .292.2.466.466 0 0 0 .545-.37.426.426 0 0 0-.088-.357L87.325 13.6l4.63-4.22a.457.457 0 0 0 .157-.343c0-.13-.046-.24-.137-.332a.476.476 0 0 0-.32-.147zm56.342 11.94l-1.44-11.48a.49.49 0 0 0-.107-.245.44.44 0 0 0-.223-.146.461.461 0 0 0-.574.244l-4.27 10.542-4.271-10.542a.445.445 0 0 0-.258-.244.45.45 0 0 0-.355.01l-.097.048a.426.426 0 0 0-.205.323l-1.498 11.48c-.02.13.01.244.088.342a.474.474 0 0 0 .311.176.44.44 0 0 0 .345-.083.417.417 0 0 0 .17-.308l1.275-9.81 4.066 9.995a.512.512 0 0 0 .195.225l.049.03a.45.45 0 0 0 .603-.254c0-.007.003-.014.01-.02l4.036-9.927 1.226 9.76a.42.42 0 0 0 .17.309.474.474 0 0 0 .754-.425zm-40.613-.616a.61.61 0 0 0-.448.186.625.625 0 0 0-.184.459c0 .176.061.326.184.45a.608.608 0 0 0 .448.185.619.619 0 0 0 .457-.186.613.613 0 0 0 .185-.449.625.625 0 0 0-.185-.46.62.62 0 0 0-.457-.185zm3.988-7.806a5.381 5.381 0 0 1 3.215-2.492c.458-.13.936-.195 1.435-.195.707 0 1.39.135 2.048.405.658.27 1.256.673 1.795 1.207a.45.45 0 0 0 .33.137.45.45 0 0 0 .331-.137.425.425 0 0 0 .131-.322.496.496 0 0 0-.14-.333 6.364 6.364 0 0 0-2.097-1.416 6.215 6.215 0 0 0-2.388-.479 6.215 6.215 0 0 0-4.543 1.935 6.494 6.494 0 0 0-1.566 2.803 6.294 6.294 0 0 0-.214 1.632c0 .88.164 1.705.491 2.477a6.34 6.34 0 0 0 3.351 3.385 6.111 6.111 0 0 0 2.462.499 6.51 6.51 0 0 0 2.388-.455 6.084 6.084 0 0 0 2.106-1.402.436.436 0 0 0 .131-.332.471.471 0 0 0-.14-.332.42.42 0 0 0-.322-.122.468.468 0 0 0-.33.141c-.552.547-1.152.945-1.8 1.192a5.65 5.65 0 0 1-2.033.372 5.175 5.175 0 0 1-2.14-.44 5.332 5.332 0 0 1-1.698-1.187 5.574 5.574 0 0 1-1.124-1.73 5.327 5.327 0 0 1-.408-2.066 5.46 5.46 0 0 1 .73-2.745zm21.425 4.855a5.476 5.476 0 0 1-1.157 1.725c-.49.492-1.062.88-1.717 1.162a5.234 5.234 0 0 1-2.101.426 5.259 5.259 0 0 1-2.111-.426 5.388 5.388 0 0 1-2.86-2.887 5.379 5.379 0 0 1-.418-2.12c0-.501.063-.983.19-1.446a5.373 5.373 0 0 1 3.76-3.776c.46-.127.94-.19 1.439-.19.745 0 1.446.141 2.1.425a5.417 5.417 0 0 1 2.875 2.877c.283.658.424 1.361.424 2.11a5.32 5.32 0 0 1-.424 2.12zm-.505-6.609a6.387 6.387 0 0 0-2.014-1.363 6.147 6.147 0 0 0-2.466-.498c-.584 0-1.146.075-1.688.224a6.2 6.2 0 0 0-2.787 1.637 6.377 6.377 0 0 0-1.615 2.799 6.327 6.327 0 0 0-.223 1.69 6.38 6.38 0 0 0 1.838 4.504c.383.391.808.723 1.274.997.467.274.972.487 1.513.64a6.18 6.18 0 0 0 1.688.23 6.18 6.18 0 0 0 1.688-.23 6.288 6.288 0 0 0 2.797-1.637c.389-.39.72-.82.992-1.29.272-.468.484-.975.637-1.518a6.26 6.26 0 0 0 .228-1.696c0-.879-.166-1.703-.5-2.472a6.503 6.503 0 0 0-1.362-2.017zm-28.444 6.61a5.48 5.48 0 0 1-1.158 1.724c-.49.492-1.062.88-1.717 1.162a5.233 5.233 0 0 1-2.1.426 5.259 5.259 0 0 1-2.112-.426 5.388 5.388 0 0 1-2.86-2.887 5.374 5.374 0 0 1-.418-2.12c0-.501.063-.983.19-1.446a5.363 5.363 0 0 1 1.381-2.388A5.343 5.343 0 0 1 98.872 9.4c.746 0 1.446.141 2.101.425a5.422 5.422 0 0 1 2.875 2.877 5.3 5.3 0 0 1 .423 2.11c0 .756-.14 1.463-.423 2.12zm-.506-6.61a6.387 6.387 0 0 0-2.013-1.363 6.147 6.147 0 0 0-2.467-.498c-.583 0-1.146.075-1.687.224a6.196 6.196 0 0 0-2.787 1.637c-.383.388-.71.816-.983 1.285a6.387 6.387 0 0 0-.856 3.204 6.38 6.38 0 0 0 1.839 4.504c.382.391.807.723 1.274.997.467.274.971.487 1.513.64a6.18 6.18 0 0 0 1.687.23c.584 0 1.147-.077 1.688-.23a6.297 6.297 0 0 0 2.797-1.637 6.327 6.327 0 0 0 1.63-2.808 6.25 6.25 0 0 0 .228-1.696c0-.879-.167-1.703-.501-2.472a6.503 6.503 0 0 0-1.362-2.017zM52.14 9.478c.13 0 .238-.044.326-.132a.445.445 0 0 0 .131-.327.457.457 0 0 0-.131-.337.442.442 0 0 0-.326-.132h-5.7a.503.503 0 0 0-.34.127.43.43 0 0 0-.147.342v11.548c0 .13.039.24.117.332a.45.45 0 0 0 .311.156h5.759a.397.397 0 0 0 .326-.131.478.478 0 0 0 .131-.337.45.45 0 0 0-.131-.328.442.442 0 0 0-.326-.132h-5.263v-4.865h3.92a.45.45 0 0 0 .327-.127.43.43 0 0 0 .13-.323c0-.13-.043-.24-.13-.332a.404.404 0 0 0-.326-.127h-3.92V9.478h5.262zm-8.132-.928h-7.432a.458.458 0 0 0-.467.459c0 .13.045.24.136.332.09.091.2.137.33.137h3.201v11.109c0 .13.04.24.122.332a.403.403 0 0 0 .316.136.46.46 0 0 0 .467-.469V9.479h3.327c.13 0 .238-.044.326-.132a.445.445 0 0 0 .13-.327.467.467 0 0 0-.13-.333.434.434 0 0 0-.326-.136zm-24.26 4.212a2.365 2.365 0 0 0 2.359-2.37 2.365 2.365 0 0 0-2.36-2.369 2.365 2.365 0 0 0-2.358 2.37 2.365 2.365 0 0 0 2.359 2.37zm-10.32 0a2.365 2.365 0 0 0 2.359-2.37 2.365 2.365 0 0 0-2.36-2.369 2.365 2.365 0 0 0-2.359 2.37 2.365 2.365 0 0 0 2.36 2.37zm15.57 3.439a1.424 1.424 0 0 1 .332 1.062 1.724 1.724 0 0 1-.345.897c-.55 1.087-1.945 2.874-5.163 2.874-2.743 0-4.492-1.051-5.23-2.08-.737 1.029-2.486 2.08-5.229 2.08-3.155 0-4.557-1.717-5.129-2.81a1.72 1.72 0 0 1-.397-.962 1.421 1.421 0 0 1 .629-1.324 1.39 1.39 0 0 1 .758-.23 1.132 1.132 0 0 1 1.118.941.97.97 0 0 1-.008.368.888.888 0 0 1-.658.669.742.742 0 0 1-.513-.061c-.071-.034-.124-.086-.172-.13-.04-.052-.08-.097-.1-.148-.011-.024-.023-.047-.03-.069l-.016-.064-.012-.055v-.046c.003-.056.01-.084.021-.084.028-.004.04.113.146.25a.532.532 0 0 0 .61.169.612.612 0 0 0 .4-.49.732.732 0 0 0-.774-.8.93.93 0 0 0-.794.58.884.884 0 0 0-.05.466 1.161 1.161 0 0 0 .654.892 3.86 3.86 0 0 0 1.062.137c1.713 0 3.084-2.165 5.483-2.165.672 0 1.627.088 3.002 1.086 1.374-.998 2.33-1.086 3.001-1.086 2.4 0 3.77 2.165 5.484 2.165.401 0 .736-.05 1.015-.125l.058-.027a1.15 1.15 0 0 0 .623-.877.887.887 0 0 0-.17-.683.93.93 0 0 0-.673-.365.734.734 0 0 0-.774.8.614.614 0 0 0 .401.49.532.532 0 0 0 .608-.167c.107-.137.118-.254.146-.25.01 0 .018.028.02.084v.046l-.01.055-.016.064c-.008.022-.02.045-.031.069-.02.05-.06.096-.1.148-.048.044-.101.096-.172.13a.744.744 0 0 1-.513.06.888.888 0 0 1-.658-.669.981.981 0 0 1-.008-.367c.036-.245.167-.487.368-.662.2-.175.473-.282.75-.279a1.39 1.39 0 0 1 1.056.493zM9.428 7.136c1.6 0 2.925 1.165 3.19 2.695a2.206 2.206 0 0 1 1.966-1.213c.862 0 1.607.498 1.97 1.223a3.245 3.245 0 0 1 3.194-2.705 3.25 3.25 0 0 1 3.243 3.257 3.25 3.25 0 0 1-3.243 3.256 3.245 3.245 0 0 1-3.208-2.804h-.336c0-.89-.724-1.613-1.616-1.613-.893 0-1.617.722-1.617 1.613h-.336a3.245 3.245 0 0 1-3.208 2.804 3.25 3.25 0 0 1-3.242-3.256 3.25 3.25 0 0 1 3.242-3.257zM14.437 0C6.463 0 0 6.492 0 14.5S6.464 29 14.437 29c7.974 0 14.437-6.492 14.437-14.5S22.411 0 14.437 0z" fill-rule="evenodd"/></svg>