<?xml version="1.0" encoding="utf-8"?><svg xmlns="http://www.w3.org/2000/svg" xmlns:xlink="http://www.w3.org/1999/xlink"><symbol viewBox="0 0 52 96.1" id="fb" xmlns="http://www.w3.org/2000/svg"><path d="M50 0H37.5c-14 0-23.1 9.3-23.1 23.7v10.9H2c-1.1 0-2 .9-2 2v15.8c0 1.1.9 2 2 2h12.5v39.9c0 1.1.9 2 2 2h16.4c1.1 0 2-.9 2-2v-40h14.7c1.1 0 2-.9 2-2V36.5c0-.5-.2-1-.6-1.4s-.9-.6-1.4-.6H34.8v-9.2c0-4.4 1.1-6.7 6.8-6.7H50c1.1 0 2-.9 2-2V2c0-1.1-.9-2-2-2z"/></symbol><symbol viewBox="0 0 97.4 97.4" id="insta" xmlns="http://www.w3.org/2000/svg"><path d="M12.5 0h72.4c6.9 0 12.5 5.1 12.5 12.5v72.4c0 7.4-5.6 12.5-12.5 12.5H12.5C5.6 97.4 0 92.3 0 84.9V12.5C0 5.1 5.6 0 12.5 0zm58.4 10.8c-2.4 0-4.4 2-4.4 4.4v10.5c0 2.4 2 4.4 4.4 4.4h11c2.4 0 4.4-2 4.4-4.4V15.2c0-2.4-2-4.4-4.4-4.4h-11zm15.5 30.4h-8.6c.8 2.6 1.3 5.5 1.3 8.4 0 16.2-13.6 29.3-30.3 29.3-16.7 0-30.3-13.1-30.3-29.3 0-2.9.4-5.7 1.3-8.4h-8.9v41.1c0 2.1 1.7 3.9 3.9 3.9h67.8c2.1 0 3.9-1.7 3.9-3.9l-.1-41.1zM48.8 29.5c-10.8 0-19.6 8.5-19.6 19s8.8 19 19.6 19 19.6-8.5 19.6-19-8.8-19-19.6-19z"/></symbol><symbol viewBox="0 0 512 441.3" id="tg" xmlns="http://www.w3.org/2000/svg"><path d="M120.5 252.7L184 411.6l82.8-82.8 141.5 112.5L511 0-1 205.5l121.5 47.2zm-40-47.7l244-97.9-194 117.3-50-19.4zm287.6-89.2L206.1 264l-19.5 73.4-36-90.1 217.5-131.5zM218.2 335l9.8-37 15.1 12-24.9 25zm171.7 53.4L242.5 271.3l221.9-203-74.5 320.1z"/></symbol><symbol viewBox="0 0 33.9 27.5" id="twitter" xmlns="http://www.w3.org/2000/svg"><path d="M30.4 6.9v.9c0 9.2-7 19.8-19.8 19.8-3.9 0-7.6-1.1-10.7-3.1.5.1 1.1.1 1.7.1 3.3 0 6.3-1.1 8.6-3-3-.1-5.6-2.1-6.5-4.8.4.1.9.1 1.3.1.6 0 1.2-.1 1.8-.2-3.2-.6-5.6-3.4-5.6-6.8v-.1c.9.5 2 .8 3.2.9-1.8-1.4-3-3.5-3-5.9 0-1.3.3-2.5.9-3.5 3.4 4.2 8.6 7 14.3 7.3-.1-.5-.2-1-.2-1.6 0-3.8 3.1-6.9 7-6.9 2 0 3.8.8 5.1 2.2 1.6-.3 3.1-.9 4.4-1.7-.5 1.6-1.6 3-3.1 3.8 1.4-.2 2.7-.5 4-1.1-.9 1.4-2 2.6-3.4 3.6z"/></symbol></svg>