<svg width="20" height="20" viewBox="0 0 20 20" xmlns="http://www.w3.org/2000/svg"><path d="M10 0C4.476 0 0 4.476 0 10s4.476 10 10 10 10-4.476 10-10S15.524 0 10 0zm-.207 14.615c-.567 0-1.029-.432-1.029-.99 0-.553.462-.99 1.03-.99.571 0 1.033.432 1.033.99s-.457.99-1.034.99zm1.933-4.658c-.837.485-1.12.841-1.12 1.456v.38H8.938l-.015-.413c-.082-.99.264-1.606 1.135-2.116.812-.485 1.154-.793 1.154-1.389s-.577-1.034-1.294-1.034c-.726 0-1.25.471-1.288 1.183H6.923c.034-1.548 1.178-2.644 3.11-2.644 1.804 0 3.044 1 3.044 2.437 0 .957-.462 1.616-1.351 2.14z" fill="#F7BC11"/></svg>