<?xml version="1.0" encoding="UTF-8"?><svg xmlns="http://www.w3.org/2000/svg" xmlns:xlink="http://www.w3.org/1999/xlink"><symbol viewBox="0 0 15 15" id="Time" xmlns="http://www.w3.org/2000/svg"><path d="M12.804 2.196a7.503 7.503 0 00-10.607 0c-2.931 2.928-2.928 7.677 0 10.608a7.503 7.503 0 0010.607 0 7.504 7.504 0 000-10.608zM1.501 7.78a.288.288 0 11-.112-.565.288.288 0 01.112.565zm.945 2.964a.288.288 0 01-.379-.432.288.288 0 01.379.432zm.083-6.184a.288.288 0 01-.462.127.289.289 0 01-.083-.307.288.288 0 01.462-.126.289.289 0 01.083.306zm2.217 8.276a.288.288 0 01-.461.126.289.289 0 01-.083-.307.288.288 0 01.461-.126.289.289 0 01.083.307zM4.663 2.47a.288.288 0 01-.378-.433.288.288 0 01.378.433zM5.94 5.221a.291.291 0 01.097-.396.291.291 0 01.396.097l1.215 2.246c.09.17.141.357.141.548v4.4c0 .18-.108.288-.288.288s-.289-.108-.289-.289V7.716a.593.593 0 00-.068-.274L5.94 5.222zm1.618 8.618a.288.288 0 11-.112-.565.288.288 0 01.112.565zm0-12.115a.288.288 0 11-.112-.566.288.288 0 01.112.566zm3.162 11.239a.288.288 0 01-.378-.433.288.288 0 01.378.433zm.083-10.62a.288.288 0 01-.461.127.289.289 0 01-.083-.307.288.288 0 01.461-.126.289.289 0 01.083.307zm2.218 8.276a.288.288 0 01-.462.126.289.289 0 01-.083-.306.288.288 0 01.462-.127.289.289 0 01.083.307zm-.083-5.931a.288.288 0 01-.379-.433.288.288 0 01.379.433zm.678 3.093a.288.288 0 11-.113-.565.288.288 0 01.113.565z" fill-rule="nonzero" fill="#F7BC11"/></symbol><symbol viewBox="0 0 16 10" id="eng" xmlns="http://www.w3.org/2000/svg"><defs><filter x="-18.9%" y="-31.8%" width="137.8%" height="163.6%" filterUnits="objectBoundingBox" id="ba"><feOffset in="SourceAlpha" result="shadowOffsetOuter1"/><feGaussianBlur stdDeviation="1" in="shadowOffsetOuter1" result="shadowBlurOuter1"/><feColorMatrix values="0 0 0 0 0 0 0 0 0 0 0 0 0 0 0 0 0 0 0.242866848 0" in="shadowBlurOuter1"/></filter><path id="bb" d="M0 9.438h15.855V0H0z"/></defs><g fill="none" fill-rule="evenodd"><use fill="#000" filter="url(#ba)" xlink:href="#bb"/><use fill="#0060E6" xlink:href="#bb"/><path fill="#FFF" d="M14.082 0L0 8.383v1.055h1.773l14.082-8.382V0z"/><path fill="#FFF" d="M0 0v1.056l14.082 8.382h1.773V8.383L1.773 0z"/><path fill="#FFF" d="M6.606 9.438H9.25V0H6.606z"/><path fill="#FFF" d="M0 6.291h15.855V3.146H0z"/><path fill="#ED2200" d="M0 5.663h15.855V3.776H0z"/><path fill="#ED2200" d="M7.135 9.438h1.586V0H7.135zM5.285 6.292L0 9.438h1.182l5.285-3.146zM14.674 0L9.388 3.147h1.183L15.855 0zM10.571 6.292l5.284 3.146v-.704l-4.103-2.442zM0 0v.704l4.103 2.443h1.182z"/></g></symbol><symbol viewBox="0 0 52 96.1" id="fb" xmlns="http://www.w3.org/2000/svg"><path d="M50 0H37.5c-14 0-23.1 9.3-23.1 23.7v10.9H2c-1.1 0-2 .9-2 2v15.8c0 1.1.9 2 2 2h12.5v39.9c0 1.1.9 2 2 2h16.4c1.1 0 2-.9 2-2v-40h14.7c1.1 0 2-.9 2-2V36.5c0-.5-.2-1-.6-1.4s-.9-.6-1.4-.6H34.8v-9.2c0-4.4 1.1-6.7 6.8-6.7H50c1.1 0 2-.9 2-2V2c0-1.1-.9-2-2-2z"/></symbol><symbol viewBox="0 0 16 10" id="ger" xmlns="http://www.w3.org/2000/svg"><defs><filter x="-18.9%" y="-31.8%" width="137.8%" height="163.6%" filterUnits="objectBoundingBox" id="da"><feOffset in="SourceAlpha" result="shadowOffsetOuter1"/><feGaussianBlur stdDeviation="1" in="shadowOffsetOuter1" result="shadowBlurOuter1"/><feColorMatrix values="0 0 0 0 0 0 0 0 0 0 0 0 0 0 0 0 0 0 0.24 0" in="shadowBlurOuter1"/></filter><path id="db" d="M0 9.438h15.856V0H0z"/></defs><g fill="none" fill-rule="evenodd"><use fill="#000" filter="url(#da)" xlink:href="#db"/><use fill="#515151" xlink:href="#db"/><path fill="#F40" d="M0 9.438h15.856V3.147H0z"/><path fill="#FFC900" d="M0 9.438h15.856V6.291H0z"/></g></symbol><symbol viewBox="0 0 97.4 97.4" id="insta" xmlns="http://www.w3.org/2000/svg"><path d="M12.5 0h72.4c6.9 0 12.5 5.1 12.5 12.5v72.4c0 7.4-5.6 12.5-12.5 12.5H12.5C5.6 97.4 0 92.3 0 84.9V12.5C0 5.1 5.6 0 12.5 0zm58.4 10.8c-2.4 0-4.4 2-4.4 4.4v10.5c0 2.4 2 4.4 4.4 4.4h11c2.4 0 4.4-2 4.4-4.4V15.2c0-2.4-2-4.4-4.4-4.4h-11zm15.5 30.4h-8.6c.8 2.6 1.3 5.5 1.3 8.4 0 16.2-13.6 29.3-30.3 29.3-16.7 0-30.3-13.1-30.3-29.3 0-2.9.4-5.7 1.3-8.4h-8.9v41.1c0 2.1 1.7 3.9 3.9 3.9h67.8c2.1 0 3.9-1.7 3.9-3.9l-.1-41.1zM48.8 29.5c-10.8 0-19.6 8.5-19.6 19s8.8 19 19.6 19 19.6-8.5 19.6-19-8.8-19-19.6-19z"/></symbol><symbol viewBox="0 0 16 10" id="rus" xmlns="http://www.w3.org/2000/svg"><defs><filter x="-18.9%" y="-33.3%" width="137.8%" height="166.7%" filterUnits="objectBoundingBox" id="fa"><feOffset in="SourceAlpha" result="shadowOffsetOuter1"/><feGaussianBlur stdDeviation="1" in="shadowOffsetOuter1" result="shadowBlurOuter1"/><feColorMatrix values="0 0 0 0 0 0 0 0 0 0 0 0 0 0 0 0 0 0 0.24 0" in="shadowBlurOuter1"/></filter><path id="fb" d="M0 9h15.856V0H0z"/></defs><g fill="none" fill-rule="evenodd"><use fill="#000" filter="url(#fa)" xlink:href="#fb"/><use fill="#FFF" xlink:href="#fb"/><path fill="#ED2200" d="M0 9.437h15.856V4.72H0z"/><path fill="#0066EA" d="M0 6.29h15.856V3.147H0z"/></g></symbol><symbol viewBox="0 0 24 24" id="tg" xmlns="http://www.w3.org/2000/svg"><path d="M9.417 15.181l-.397 5.584c.568 0 .814-.244 1.109-.537l2.663-2.545 5.518 4.041c1.012.564 1.725.267 1.998-.931L23.93 3.821l.001-.001c.321-1.496-.541-2.081-1.527-1.714l-21.29 8.151c-1.453.564-1.431 1.374-.247 1.741l5.443 1.693L18.953 5.78c.595-.394 1.136-.176.691.218z"/></symbol><symbol viewBox="0 0 33.9 27.5" id="twitter" xmlns="http://www.w3.org/2000/svg"><path d="M30.4 6.9v.9c0 9.2-7 19.8-19.8 19.8-3.9 0-7.6-1.1-10.7-3.1.5.1 1.1.1 1.7.1 3.3 0 6.3-1.1 8.6-3-3-.1-5.6-2.1-6.5-4.8.4.1.9.1 1.3.1.6 0 1.2-.1 1.8-.2-3.2-.6-5.6-3.4-5.6-6.8v-.1c.9.5 2 .8 3.2.9-1.8-1.4-3-3.5-3-5.9 0-1.3.3-2.5.9-3.5 3.4 4.2 8.6 7 14.3 7.3-.1-.5-.2-1-.2-1.6 0-3.8 3.1-6.9 7-6.9 2 0 3.8.8 5.1 2.2 1.6-.3 3.1-.9 4.4-1.7-.5 1.6-1.6 3-3.1 3.8 1.4-.2 2.7-.5 4-1.1-.9 1.4-2 2.6-3.4 3.6z"/></symbol><symbol viewBox="0 0 16 10" id="ukr" xmlns="http://www.w3.org/2000/svg"><defs><filter x="-18.9%" y="-31.8%" width="137.8%" height="163.6%" filterUnits="objectBoundingBox" id="ia"><feOffset in="SourceAlpha" result="shadowOffsetOuter1"/><feGaussianBlur stdDeviation="1" in="shadowOffsetOuter1" result="shadowBlurOuter1"/><feColorMatrix values="0 0 0 0 0 0 0 0 0 0 0 0 0 0 0 0 0 0 0.24 0" in="shadowBlurOuter1"/></filter><path id="ib" d="M0 9.438h15.854V0H0z"/></defs><g fill="none" fill-rule="evenodd"><use fill="#000" filter="url(#ia)" xlink:href="#ib"/><use fill="#008FF4" xlink:href="#ib"/><path fill="#FFDA00" d="M0 9.438h15.854v-4.72H0z"/></g></symbol></svg>