<svg width="20" height="20" viewBox="0 0 20 20" xmlns="http://www.w3.org/2000/svg"><title>tick/tick_unavailable</title><path d="M17.123.016c.407-.001.804.036 1.172.221.882.442 1.367 1.157 1.415 2.144.023.487.006.974.006 1.462 0 4.344 0 8.688-.002 13.03 0 .23 0 .463-.041.685-.228 1.18-1.196 2-2.402 2.002-4.888.006-9.778.008-14.666-.002-1.371-.002-2.428-1.06-2.431-2.431C.164 12.239.166 7.349.172 2.46.175 1.059 1.215.026 2.63.019c2.437-.008 4.874 0 7.312-.001 2.393 0 4.788.002 7.182-.002z" fill="#EEE" stroke="#D8D8D8" fill-rule="evenodd"/></svg>