<svg width="20" height="20" viewBox="0 0 20 20" xmlns="http://www.w3.org/2000/svg"><title>tick/tick_uncheck</title><path d="M9.94.018c2.394 0 4.79.002 7.183-.002.407-.001.804.036 1.172.221.882.442 1.367 1.157 1.415 2.144.023.487.006.974.006 1.462 0 4.344 0 8.688-.002 13.03 0 .23 0 .463-.041.685-.228 1.18-1.196 2-2.402 2.002-4.888.006-9.778.008-14.666-.002-1.371-.002-2.428-1.06-2.431-2.431C.164 12.239.166 7.349.172 2.46.175 1.059 1.215.026 2.63.019c2.437-.008 4.874 0 7.312-.001zm.032 1.217H2.918c-.145 0-.289-.005-.43.007a1.214 1.214 0 0 0-1.095 1.091c-.014.143-.008.287-.008.43v14.023c0 .115-.003.23.002.344.029.64.446 1.108 1.078 1.2.142.02.286.016.43.016h14.108c.071 0 .144.001.216-.002.767-.03 1.253-.515 1.28-1.278.003-.1 0-.2 0-.302V2.784c0-.13.006-.258-.005-.386-.055-.671-.54-1.136-1.21-1.163-.129-.005-.258-.003-.386-.003-2.31.003-4.618.003-6.926.003z" fill="#505763" fill-rule="evenodd"/></svg>