<svg width="20" height="20" viewBox="0 0 20 20" xmlns="http://www.w3.org/2000/svg"><title>tick/tick_yes</title><g fill="none" fill-rule="evenodd"><path d="M9.996.002c2.448 0 4.897.003 7.345-.001.417-.001.823.037 1.2.226.901.452 1.397 1.184 1.447 2.194.023.497.005.996.005 1.495l-.001 13.33c0 .235 0 .473-.043.7-.232 1.208-1.223 2.047-2.456 2.049-5 .006-10 .008-15-.002C1.092 19.99.01 18.91.008 17.506-.003 12.505-.002 7.503.006 2.502.008 1.067 1.072.011 2.518.004c2.492-.009 4.985 0 7.478-.002z" fill="#096CA3"/><path d="M9.386 11.87c1.129-2.1 2.256-4.199 3.385-6.297.063-.116.12-.238.2-.339.198-.253.495-.303.747-.14.247.161.347.473.238.775-.035.096-.084.186-.133.277l-4.001 7.46c-.24.446-.606.524-.963.179a219.243 219.243 0 0 1-2.626-2.602c-.286-.288-.304-.636-.081-.911.226-.28.586-.293.882-.005.577.558 1.142 1.127 1.713 1.692.112.109.224.218.379.372.105-.186.186-.322.26-.461z" fill="#FFF"/></g></svg>